<?xml version="1.0" encoding="utf-8" ?>
<svg xmlns="http://www.w3.org/2000/svg" xmlns:xlink="http://www.w3.org/1999/xlink" width="512" height="512">
	<path fill="#3D3939" d="M249.801 10.3607C255.33 10.6186 261.018 10.2456 266.576 10.3882C273.019 10.5536 279.601 11.3601 285.998 12.1275C369.838 22.1841 444.314 76.2382 479.002 153.274C491.254 180.483 499.784 210.831 501.239 240.802L501.381 254.731C501.199 330.239 467.102 401.62 407.739 448.066C365.384 481.205 316.452 498.074 263.195 500.245L246.105 500.238C126.432 496.918 24.6256 401.648 12.5144 282.741C12.0702 278.38 11.5003 274.035 11.3684 269.651L11.2523 250.673C11.2958 229.972 14.2695 209.492 19.742 189.5C48.342 85.0207 142.864 13.4706 249.801 10.3607ZM150.525 115.855C132.735 116.907 118.438 129.765 116.116 147.418C115.495 152.134 115.679 156.998 115.682 161.749L115.663 349.375C115.658 358.984 115.089 365.772 119.646 374.695C124.953 385.084 134.088 390.882 144.889 394.105C149.897 395.6 155.972 395.123 161.156 395.125L361.397 395.271C378.044 394.595 392.914 382.962 396.316 366.5L396.417 366.03C397.214 362.239 396.839 357.981 396.801 354.121L396.767 163.779C396.775 158.869 397.078 153.727 396.662 148.842C395.049 129.9 377.732 115.766 359.116 115.748L150.525 115.855Z"/>
	<path fill="#E65610" d="M150.525 115.855L359.116 115.748C377.732 115.766 395.049 129.9 396.662 148.842C397.078 153.727 396.775 158.869 396.767 163.779L396.801 354.121C396.839 357.981 397.214 362.239 396.417 366.03L396.316 366.5C392.914 382.962 378.044 394.595 361.397 395.271L161.156 395.125C155.972 395.123 149.897 395.6 144.889 394.105C134.088 390.882 124.953 385.084 119.646 374.695C115.089 365.772 115.658 358.984 115.663 349.375L115.682 161.749C115.679 156.998 115.495 152.134 116.116 147.418C118.438 129.765 132.735 116.907 150.525 115.855ZM270.903 177.583C263.102 178.732 258.56 182.737 256.021 189.934L219.495 309.883C218.888 312.216 218.384 314.809 218.85 317.214L219.175 318.25C221.885 326.717 229.075 333.281 238.391 332.059C249.706 330.005 253.118 322.74 256.311 312.868L289.316 203.657C291.975 192.525 288.878 179.789 275.875 177.687L275.508 177.624C274.204 177.418 272.172 177.274 270.903 177.583ZM191.753 194.325C185.036 195.541 180.693 200.23 175.761 204.556L141.369 233.157C138.704 235.316 135.884 237.625 133.945 240.484C128.531 248.465 128.518 263.589 134.936 271.299C138.347 275.397 142.903 278.691 146.972 282.099L165.63 297.691C173.348 304.155 180.969 313.187 190.795 316.415C193.113 316.856 195.197 316.876 197.5 316.322L197.897 316.23C207.484 313.894 211.815 304.331 210.716 295.133C209.761 287.146 200.905 280.979 195.25 276.256C187.064 269.419 178.261 262.929 170.702 255.4C176.56 249.557 182.948 244.098 189.324 238.824C195.735 233.52 203.703 228.297 208.503 221.414C217.073 209.125 206.977 193.807 192.798 194.274L191.753 194.325ZM316.643 194.597C311.913 195.082 307.5 197.088 304.457 200.849C294.131 213.611 304.115 223.301 314 231.724L341.804 255.363L313.812 279.409C304.768 286.715 297.229 295.245 303.925 307.556L304.08 307.853C306.153 311.748 309.939 314.602 314.127 315.854L316.406 316.331C319.314 316.799 322.036 316.197 324.686 315.016C329.211 312.723 332.884 309.525 336.754 306.282L367.193 280.204C370.42 277.506 373.831 274.886 376.658 271.757C383.682 263.983 383.609 247.676 377.384 239.674C373.061 234.115 366.678 229.826 361.261 225.368L340.038 207.747C333.333 202.181 326.398 193.48 316.643 194.597Z"/>
</svg>
